<svg xmlns="http://www.w3.org/2000/svg" viewBox="0 0 1024 1024" role="img" aria-labelledby="title desc">
  <title id="title">Batavia logo</title>
  <desc id="desc">An abstract letter B formed from a strategy receipt and three decision lines.</desc>
  <rect width="1024" height="1024" rx="160" fill="#F7F4ED"/>

  <!-- The folded corner turns a simple B into a machine-readable receipt. -->
  <path d="M292 306 396 202v104H292Z" fill="#11263D"/>
  <path d="M420 202h142c113 0 190 69 190 168 0 64-31 112-83 140 69 25 111 81 111 156 0 101-81 174-202 174H292V330h128V202Z" fill="#11263D"/>

  <path d="M356 386h268l52 44-52 44H356v-88Z" fill="#F7F4ED"/>
  <path d="M356 518h296l52 44-52 44H356v-88Z" fill="#F7F4ED"/>
  <path d="M356 650h250l44 44-44 44H356v-88Z" fill="#F7F4ED"/>
  <path d="m606 650 88 44-88 44 44-44-44-44Z" fill="#D99A2B"/>
</svg>
